<svg width="412" height="206" viewBox="0 0 412 206" fill="none" xmlns="http://www.w3.org/2000/svg">
<g clip-path="url(#clip0_2016_477)">
<rect width="412" height="206" fill="#1F373F"/>
<g opacity="0.67" filter="url(#filter0_f_2016_477)">
<circle cx="206" cy="70.8605" r="103.14" fill="#4B6A61" fill-opacity="0.78"/>
</g>
<g opacity="0.2">
<path d="M367.675 51.2177L369.007 47.7767C373.476 36.2364 369.888 28.1148 358.348 23.6462C346.808 19.1776 338.686 22.7652 334.218 34.3055L332.885 37.7465C327.499 37.1741 324.493 40.0479 321.673 47.3309L319.951 51.7782C316.158 61.5733 317.984 65.7193 327.786 69.5149L350.008 78.1196C359.803 81.9125 363.949 80.0869 367.745 70.2847L369.467 65.8374C372.279 58.5755 371.992 54.4266 367.682 51.2204L367.675 51.2177ZM359.813 47.4048L341.272 40.2251L342.345 37.4526C344.778 31.1688 347.32 28.7219 355.201 31.7737C363.082 34.8254 363.313 38.3458 360.88 44.6296L359.806 47.4021L359.813 47.4048Z" fill="url(#paint0_linear_2016_477)"/>
<path d="M353.974 55.118L340.344 49.8402C340.043 49.7236 339.708 49.7314 339.412 49.8619C339.117 49.9924 338.885 50.235 338.768 50.5362L335.25 59.6229C335.133 59.9241 335.141 60.2594 335.272 60.5549C335.402 60.8504 335.645 61.0819 335.946 61.1986L349.576 66.4763C349.877 66.593 350.212 66.5852 350.508 66.4546C350.803 66.3241 351.035 66.0815 351.152 65.7803L354.67 56.6936C354.787 56.3924 354.779 56.0571 354.648 55.7616C354.518 55.4662 354.275 55.2346 353.974 55.118ZM344.209 61.7857L343.073 61.3459C342.922 61.2875 342.801 61.1718 342.735 61.024C342.67 60.8763 342.666 60.7087 342.725 60.558C342.783 60.4074 342.899 60.2861 343.046 60.2209C343.194 60.1556 343.362 60.1517 343.512 60.21L344.648 60.6498C344.799 60.7082 344.92 60.8239 344.985 60.9717C345.051 61.1194 345.055 61.287 344.996 61.4377C344.938 61.5883 344.822 61.7096 344.674 61.7748C344.527 61.8401 344.359 61.844 344.209 61.7857ZM348.752 63.5449L346.48 62.6653C346.33 62.607 346.208 62.4912 346.143 62.3435C346.078 62.1957 346.074 62.0281 346.132 61.8775C346.19 61.7269 346.306 61.6056 346.454 61.5403C346.602 61.475 346.769 61.4711 346.92 61.5295L349.192 62.4091C349.342 62.4674 349.464 62.5832 349.529 62.7309C349.594 62.8787 349.598 63.0463 349.54 63.1969C349.481 63.3475 349.366 63.4688 349.218 63.5341C349.07 63.5994 348.902 63.6033 348.752 63.5449ZM339.245 52.6798L339.904 50.976L353.534 56.2538L352.875 57.9576L339.245 52.6798Z" fill="white"/>
</g>
<g opacity="0.2">
<path d="M64.0831 113.811L63.0334 110.273C59.5132 98.4092 51.7086 94.1762 39.8445 97.6964C27.9805 101.217 23.7475 109.021 27.2677 120.885L28.3173 124.423C23.7055 127.263 23.0837 131.375 25.3053 138.863L26.6619 143.435C29.6498 153.504 33.6293 155.669 43.7065 152.679L66.552 145.9C76.6219 142.913 78.7864 138.933 75.7963 128.856L74.4398 124.284C72.2246 116.818 69.4608 113.711 64.0903 113.809L64.0831 113.811ZM55.5309 115.6L36.4689 121.256L35.6232 118.406C33.7064 111.946 34.2214 108.456 42.3237 106.052C50.426 103.648 52.7612 106.292 54.678 112.752L55.5237 115.603L55.5309 115.6Z" fill="url(#paint1_linear_2016_477)"/>
<path d="M55.6266 125.274L41.6142 129.432C41.3045 129.524 41.044 129.735 40.89 130.019C40.736 130.303 40.7011 130.636 40.793 130.946L43.5648 140.288C43.6566 140.597 43.8678 140.858 44.1518 141.012C44.4357 141.166 44.7692 141.201 45.0789 141.109L59.0913 136.951C59.401 136.859 59.6615 136.648 59.8155 136.364C59.9695 136.08 60.0044 135.747 59.9125 135.437L57.1408 126.095C57.0489 125.786 56.8377 125.525 56.5538 125.371C56.2698 125.217 55.9363 125.182 55.6266 125.274ZM51.976 136.521L50.8083 136.868C50.6535 136.914 50.4867 136.896 50.3447 136.819C50.2028 136.742 50.0972 136.612 50.0512 136.457C50.0053 136.302 50.0227 136.136 50.0997 135.994C50.1767 135.852 50.307 135.746 50.4618 135.7L51.6295 135.354C51.7844 135.308 51.9511 135.325 52.0931 135.402C52.2351 135.479 52.3407 135.609 52.3866 135.764C52.4326 135.919 52.4151 136.086 52.3381 136.228C52.2611 136.37 52.1309 136.475 51.976 136.521ZM56.6468 135.136L54.3114 135.828C54.1566 135.874 53.9898 135.857 53.8478 135.78C53.7058 135.703 53.6003 135.573 53.5543 135.418C53.5084 135.263 53.5258 135.096 53.6028 134.954C53.6798 134.812 53.8101 134.707 53.9649 134.661L56.3003 133.968C56.4552 133.922 56.6219 133.939 56.7639 134.016C56.9059 134.093 57.0115 134.224 57.0574 134.378C57.1034 134.533 57.0859 134.7 57.0089 134.842C56.9319 134.984 56.8016 135.09 56.6468 135.136ZM42.4804 132.351L41.9607 130.6L55.9731 126.442L56.4928 128.193L42.4804 132.351Z" fill="white"/>
</g>
<g opacity="0.2">
<path d="M102.523 2.92421L101.302 -0.557663C97.2048 -12.2351 89.2022 -16.0809 77.5248 -11.9841C65.8473 -7.88726 62.0015 0.115304 66.0983 11.7928L67.3199 15.2746C62.8526 18.3373 62.4329 22.4749 65.0184 29.8445L66.5972 34.3446C70.0745 44.2562 74.1552 46.2232 84.074 42.7434L106.56 34.8545C116.472 31.3772 118.439 27.2965 114.959 17.3778L113.38 12.8777C110.802 5.52945 107.889 2.56092 102.53 2.92171L102.523 2.92421ZM94.0689 5.13054L75.3066 11.7129L74.3224 8.9075C72.0916 2.54898 72.4352 -0.962188 80.41 -3.76002C88.3849 -6.55785 90.8468 -4.03092 93.0775 2.3276L94.0618 5.13304L94.0689 5.13054Z" fill="url(#paint2_linear_2016_477)"/>
<path d="M94.6379 14.7874L80.8459 19.6261C80.541 19.733 80.2912 19.9567 80.1513 20.2478C80.0113 20.539 79.9928 20.8738 80.0998 21.1786L83.3255 30.3733C83.4325 30.6781 83.6561 30.928 83.9473 31.0679C84.2385 31.2078 84.5733 31.2264 84.8781 31.1194L98.6701 26.2807C98.9749 26.1738 99.2248 25.9501 99.3647 25.659C99.5046 25.3678 99.5232 25.033 99.4162 24.7282L96.1904 15.5335C96.0835 15.2287 95.8598 14.9788 95.5687 14.8389C95.2775 14.699 94.9427 14.6805 94.6379 14.7874ZM91.5423 26.1998L90.393 26.603C90.2406 26.6565 90.0732 26.6472 89.9276 26.5773C89.782 26.5073 89.6702 26.3824 89.6167 26.23C89.5632 26.0776 89.5725 25.9101 89.6425 25.7646C89.7124 25.619 89.8374 25.5072 89.9898 25.4537L91.1391 25.0505C91.2915 24.997 91.4589 25.0063 91.6045 25.0762C91.7501 25.1462 91.8619 25.2711 91.9154 25.4235C91.9688 25.5759 91.9596 25.7433 91.8896 25.8889C91.8197 26.0345 91.6947 26.1463 91.5423 26.1998ZM96.1397 24.5869L93.841 25.3934C93.6886 25.4468 93.5212 25.4376 93.3756 25.3676C93.23 25.2976 93.1182 25.1727 93.0647 25.0203C93.0112 24.8679 93.0205 24.7005 93.0905 24.5549C93.1604 24.4093 93.2854 24.2975 93.4378 24.244L95.7364 23.4376C95.8888 23.3841 96.0563 23.3934 96.2018 23.4633C96.3474 23.5333 96.4592 23.6582 96.5127 23.8106C96.5662 23.963 96.5569 24.1304 96.487 24.276C96.417 24.4216 96.2921 24.5334 96.1397 24.5869ZM81.8539 22.4994L81.2491 20.7754L95.0411 15.9367L95.6459 17.6607L81.8539 22.4994Z" fill="white"/>
</g>
<g opacity="0.2">
<path d="M412.507 185.303L413.556 181.765C417.075 169.901 412.841 162.097 400.977 158.578C389.112 155.059 381.308 159.293 377.789 171.158L376.74 174.695C371.326 174.561 368.562 177.669 366.341 185.157L364.985 189.729C361.999 199.799 364.154 203.784 374.232 206.772L397.078 213.548C407.149 216.535 411.133 214.379 414.122 204.302L415.478 199.729C417.692 192.263 417.07 188.151 412.515 185.305L412.507 185.303ZM404.363 182.14L385.3 176.486L386.145 173.636C388.061 167.175 390.396 164.531 398.499 166.934C406.601 169.337 407.117 172.827 405.201 179.287L404.355 182.138L404.363 182.14Z" fill="url(#paint3_linear_2016_477)"/>
<path d="M399.168 190.301L385.155 186.145C384.845 186.053 384.512 186.088 384.228 186.242C383.944 186.396 383.733 186.657 383.641 186.967L380.87 196.308C380.778 196.618 380.813 196.952 380.967 197.236C381.121 197.52 381.382 197.731 381.692 197.823L395.704 201.978C396.014 202.07 396.348 202.035 396.632 201.881C396.916 201.727 397.127 201.467 397.218 201.157L399.989 191.815C400.081 191.505 400.046 191.172 399.892 190.888C399.738 190.604 399.477 190.393 399.168 190.301ZM389.975 197.738L388.807 197.392C388.652 197.346 388.522 197.24 388.445 197.098C388.368 196.956 388.35 196.79 388.396 196.635C388.442 196.48 388.548 196.35 388.69 196.273C388.831 196.196 388.998 196.178 389.153 196.224L390.321 196.57C390.476 196.616 390.606 196.722 390.683 196.864C390.76 197.006 390.777 197.173 390.732 197.327C390.686 197.482 390.58 197.613 390.438 197.69C390.296 197.767 390.129 197.784 389.975 197.738ZM394.645 199.123L392.31 198.431C392.155 198.385 392.025 198.279 391.948 198.137C391.871 197.995 391.853 197.829 391.899 197.674C391.945 197.519 392.051 197.389 392.193 197.312C392.335 197.235 392.501 197.217 392.656 197.263L394.992 197.956C395.147 198.002 395.277 198.107 395.354 198.249C395.431 198.391 395.448 198.558 395.403 198.713C395.357 198.868 395.251 198.998 395.109 199.075C394.967 199.152 394.8 199.169 394.645 199.123ZM384.289 189.065L384.808 187.313L398.821 191.469L398.302 193.22L384.289 189.065Z" fill="white"/>
</g>
</g>
<defs>
<filter id="filter0_f_2016_477" x="-61.1399" y="-196.279" width="534.28" height="534.279" filterUnits="userSpaceOnUse" color-interpolation-filters="sRGB">
<feFlood flood-opacity="0" result="BackgroundImageFix"/>
<feBlend mode="normal" in="SourceGraphic" in2="BackgroundImageFix" result="shape"/>
<feGaussianBlur stdDeviation="82" result="effect1_foregroundBlur_2016_477"/>
</filter>
<linearGradient id="paint0_linear_2016_477" x1="358.327" y1="23.638" x2="336.818" y2="79.1856" gradientUnits="userSpaceOnUse">
<stop stop-color="#FF4027"/>
<stop offset="1" stop-color="#FF3F14" stop-opacity="0.25"/>
</linearGradient>
<linearGradient id="paint1_linear_2016_477" x1="39.8228" y1="97.7028" x2="56.7668" y2="154.809" gradientUnits="userSpaceOnUse">
<stop stop-color="#FF4027"/>
<stop offset="1" stop-color="#FF3F14" stop-opacity="0.25"/>
</linearGradient>
<linearGradient id="paint2_linear_2016_477" x1="77.5034" y1="-11.9766" x2="97.2229" y2="44.2312" gradientUnits="userSpaceOnUse">
<stop stop-color="#FF4027"/>
<stop offset="1" stop-color="#FF3F14" stop-opacity="0.25"/>
</linearGradient>
<linearGradient id="paint3_linear_2016_477" x1="400.955" y1="158.571" x2="384.018" y2="215.679" gradientUnits="userSpaceOnUse">
<stop stop-color="#FF4027"/>
<stop offset="1" stop-color="#FF3F14" stop-opacity="0.25"/>
</linearGradient>
<clipPath id="clip0_2016_477">
<rect width="412" height="206" fill="white"/>
</clipPath>
</defs>
</svg>
