<svg width="66" height="67" viewBox="0 0 66 67" fill="none" xmlns="http://www.w3.org/2000/svg">
<g filter="url(#filter0_b_2016_464)">
<rect x="0.5" y="0.5" width="65" height="66" rx="32.5" fill="url(#paint0_linear_2016_464)"/>
<rect x="1" y="1" width="64" height="65" rx="32" stroke="#EBEBEB" stroke-opacity="0.16"/>
<path d="M43.5 27H21C20.6022 27 20.2206 27.158 19.9393 27.4393C19.658 27.7206 19.5 28.1022 19.5 28.5V34.5C19.5047 37.6528 20.6978 40.6879 22.8412 43H21C20.6022 43 20.2206 43.158 19.9393 43.4393C19.658 43.7206 19.5 44.1022 19.5 44.5C19.5 44.8978 19.658 45.2794 19.9393 45.5607C20.2206 45.842 20.6022 46 21 46H43C43.3978 46 43.7794 45.842 44.0607 45.5607C44.342 45.2794 44.5 44.8978 44.5 44.5C44.5 44.1022 44.342 43.7206 44.0607 43.4393C43.7794 43.158 43.3978 43 43 43H41.1588C42.2366 41.836 43.0848 40.4789 43.6588 39C45.0898 38.9587 46.4483 38.361 47.4456 37.334C48.443 36.307 49.0006 34.9316 49 33.5V32.5C48.9983 31.0418 48.4184 29.6438 47.3873 28.6127C46.3562 27.5816 44.9582 27.0017 43.5 27ZM41.5 34.5C41.4968 36.2638 41.0044 37.9921 40.0776 39.4928C39.1507 40.9934 37.8257 42.2075 36.25 43H27.75C26.1743 42.2075 24.8493 40.9934 23.9224 39.4928C22.9956 37.9921 22.5032 36.2638 22.5 34.5V30H41.5V34.5ZM46 33.5C45.9995 33.9992 45.8496 34.4868 45.5696 34.9001C45.2896 35.3133 44.8922 35.6333 44.4287 35.8188C44.4764 35.3808 44.5002 34.9405 44.5 34.5V30.21C44.9456 30.4045 45.3249 30.7247 45.5913 31.1314C45.8577 31.5382 45.9998 32.0138 46 32.5V33.5ZM25.5 23.5V20.5C25.5 20.1022 25.658 19.7206 25.9393 19.4393C26.2206 19.158 26.6022 19 27 19C27.3978 19 27.7794 19.158 28.0607 19.4393C28.342 19.7206 28.5 20.1022 28.5 20.5V23.5C28.5 23.8978 28.342 24.2794 28.0607 24.5607C27.7794 24.842 27.3978 25 27 25C26.6022 25 26.2206 24.842 25.9393 24.5607C25.658 24.2794 25.5 23.8978 25.5 23.5ZM30.5 23.5V20.5C30.5 20.1022 30.658 19.7206 30.9393 19.4393C31.2206 19.158 31.6022 19 32 19C32.3978 19 32.7794 19.158 33.0607 19.4393C33.342 19.7206 33.5 20.1022 33.5 20.5V23.5C33.5 23.8978 33.342 24.2794 33.0607 24.5607C32.7794 24.842 32.3978 25 32 25C31.6022 25 31.2206 24.842 30.9393 24.5607C30.658 24.2794 30.5 23.8978 30.5 23.5ZM35.5 23.5V20.5C35.5 20.1022 35.658 19.7206 35.9393 19.4393C36.2206 19.158 36.6022 19 37 19C37.3978 19 37.7794 19.158 38.0607 19.4393C38.342 19.7206 38.5 20.1022 38.5 20.5V23.5C38.5 23.8978 38.342 24.2794 38.0607 24.5607C37.7794 24.842 37.3978 25 37 25C36.6022 25 36.2206 24.842 35.9393 24.5607C35.658 24.2794 35.5 23.8978 35.5 23.5Z" fill="white" fill-opacity="0.2"/>
</g>
<defs>
<filter id="filter0_b_2016_464" x="-14.5" y="-14.5" width="95" height="96" filterUnits="userSpaceOnUse" color-interpolation-filters="sRGB">
<feFlood flood-opacity="0" result="BackgroundImageFix"/>
<feGaussianBlur in="BackgroundImageFix" stdDeviation="7.5"/>
<feComposite in2="SourceAlpha" operator="in" result="effect1_backgroundBlur_2016_464"/>
<feBlend mode="normal" in="SourceGraphic" in2="effect1_backgroundBlur_2016_464" result="shape"/>
</filter>
<linearGradient id="paint0_linear_2016_464" x1="33" y1="0.5" x2="33" y2="66.5" gradientUnits="userSpaceOnUse">
<stop stop-color="#26383E"/>
<stop offset="1" stop-color="#1C2624"/>
</linearGradient>
</defs>
</svg>
