<svg width="66" height="67" viewBox="0 0 66 67" fill="none" xmlns="http://www.w3.org/2000/svg">
<g filter="url(#filter0_b_2016_466)">
<rect x="0.5" y="0.5" width="65" height="66" rx="32.5" fill="url(#paint0_linear_2016_466)"/>
<rect x="1" y="1" width="64" height="65" rx="32" stroke="#EBEBEB" stroke-opacity="0.16"/>
<path d="M47.5 38.9997L35.5 29.9997L37.9 28.1997C38.0863 28.0599 38.2375 27.8788 38.3416 27.6705C38.4458 27.4622 38.5 27.2325 38.5 26.9997C38.5007 25.5999 37.9676 24.2526 37.0095 23.2322C36.0513 22.2118 34.7402 21.5951 33.3432 21.5078C31.9462 21.4205 30.5684 21.8691 29.4906 22.7622C28.4129 23.6553 27.7162 24.9257 27.5425 26.3147C27.5179 26.5102 27.532 26.7086 27.5841 26.8987C27.6361 27.0887 27.7251 27.2666 27.846 27.4223C27.9668 27.5779 28.1171 27.7083 28.2883 27.8058C28.4595 27.9034 28.6482 27.9663 28.8438 27.9909C29.0393 28.0155 29.2377 28.0014 29.4277 27.9493C29.6178 27.8973 29.7957 27.8083 29.9514 27.6875C30.107 27.5666 30.2374 27.4163 30.3349 27.2451C30.4325 27.0739 30.4954 26.8852 30.52 26.6897C30.5924 26.1176 30.8603 25.5882 31.2784 25.191C31.6965 24.7939 32.239 24.5535 32.814 24.5106C33.389 24.4676 33.9612 24.6247 34.4336 24.9554C34.906 25.286 35.2497 25.7697 35.4062 26.3247L32.125 28.7797C32.1062 28.7922 32.0887 28.8059 32.0712 28.8197L18.5 38.9997C18.0802 39.3145 17.7702 39.7534 17.6137 40.2542C17.4573 40.7551 17.4624 41.2925 17.6283 41.7902C17.7942 42.288 18.1126 42.721 18.5382 43.0278C18.9639 43.3346 19.4753 43.4997 20 43.4997H46C46.5247 43.4997 47.0361 43.3346 47.4618 43.0278C47.8874 42.721 48.2058 42.288 48.3717 41.7902C48.5376 41.2925 48.5427 40.7551 48.3863 40.2542C48.2298 39.7534 47.9198 39.3145 47.5 38.9997ZM21.5 40.4997L33 31.8747L44.5 40.4997H21.5Z" fill="white" fill-opacity="0.2"/>
</g>
<defs>
<filter id="filter0_b_2016_466" x="-14.5" y="-14.5" width="95" height="96" filterUnits="userSpaceOnUse" color-interpolation-filters="sRGB">
<feFlood flood-opacity="0" result="BackgroundImageFix"/>
<feGaussianBlur in="BackgroundImageFix" stdDeviation="7.5"/>
<feComposite in2="SourceAlpha" operator="in" result="effect1_backgroundBlur_2016_466"/>
<feBlend mode="normal" in="SourceGraphic" in2="effect1_backgroundBlur_2016_466" result="shape"/>
</filter>
<linearGradient id="paint0_linear_2016_466" x1="33" y1="0.5" x2="33" y2="66.5" gradientUnits="userSpaceOnUse">
<stop stop-color="#26383E"/>
<stop offset="1" stop-color="#1C2624"/>
</linearGradient>
</defs>
</svg>
