<svg width="66" height="66" viewBox="0 0 66 66" fill="none" xmlns="http://www.w3.org/2000/svg">
<g filter="url(#filter0_b_2016_460)">
<rect x="0.5" width="65" height="66" rx="32.5" fill="url(#paint0_linear_2016_460)"/>
<rect x="1" y="0.5" width="64" height="65" rx="32" stroke="#EBEBEB" stroke-opacity="0.16"/>
<path d="M45.1513 24.0388C45.0105 23.8701 44.8344 23.7345 44.6355 23.6414C44.4366 23.5483 44.2196 23.5 44 23.5H24.25L23.7162 20.5525C23.6114 19.9765 23.3078 19.4555 22.8582 19.0804C22.4087 18.7053 21.8417 18.4999 21.2562 18.5H19C18.6022 18.5 18.2206 18.658 17.9393 18.9393C17.658 19.2206 17.5 19.6022 17.5 20C17.5 20.3978 17.658 20.7794 17.9393 21.0607C18.2206 21.342 18.6022 21.5 19 21.5H20.8387L23.9525 38.625C24.0361 39.0799 24.209 39.5136 24.4612 39.9013C24.0147 40.4238 23.7103 41.0525 23.5774 41.7269C23.4446 42.4013 23.4878 43.0986 23.7028 43.7514C23.9178 44.4042 24.2975 44.9907 24.8051 45.4541C25.3127 45.9175 25.9312 46.2423 26.6008 46.3972C27.2705 46.5521 27.9688 46.5317 28.6283 46.3382C29.2879 46.1447 29.8864 45.7844 30.3662 45.2923C30.846 44.8001 31.1909 44.1926 31.3676 43.5283C31.5443 42.8641 31.5468 42.1655 31.375 41.5H35.625C35.4165 42.3076 35.4656 43.1603 35.7656 43.9386C36.0656 44.7169 36.6014 45.382 37.2981 45.8407C37.9947 46.2995 38.8174 46.529 39.6509 46.4971C40.4844 46.4652 41.2871 46.1735 41.9467 45.6629C42.6062 45.1523 43.0897 44.4482 43.3293 43.6492C43.569 42.8503 43.5529 41.9964 43.2833 41.207C43.0136 40.4177 42.504 39.7324 41.8256 39.247C41.1473 38.7616 40.3341 38.5004 39.5 38.5H27.3962C27.2794 38.4999 27.1662 38.4588 27.0765 38.3839C26.9867 38.309 26.926 38.205 26.905 38.09L26.615 36.5H40.5125C41.3324 36.5 42.1262 36.2122 42.7555 35.6868C43.3849 35.1614 43.8098 34.4317 43.9562 33.625L45.4762 25.2675C45.5153 25.0514 45.5065 24.8293 45.4503 24.617C45.3942 24.4047 45.2921 24.2073 45.1513 24.0388ZM28.5 42.5C28.5 42.6978 28.4414 42.8911 28.3315 43.0556C28.2216 43.22 28.0654 43.3482 27.8827 43.4239C27.7 43.4996 27.4989 43.5194 27.3049 43.4808C27.1109 43.4422 26.9327 43.347 26.7929 43.2071C26.653 43.0673 26.5578 42.8891 26.5192 42.6951C26.4806 42.5011 26.5004 42.3 26.5761 42.1173C26.6518 41.9346 26.78 41.7784 26.9444 41.6685C27.1089 41.5586 27.3022 41.5 27.5 41.5C27.7652 41.5 28.0196 41.6054 28.2071 41.7929C28.3946 41.9804 28.5 42.2348 28.5 42.5ZM39.5 43.5C39.3022 43.5 39.1089 43.4414 38.9444 43.3315C38.78 43.2216 38.6518 43.0654 38.5761 42.8827C38.5004 42.7 38.4806 42.4989 38.5192 42.3049C38.5578 42.1109 38.653 41.9327 38.7929 41.7929C38.9327 41.653 39.1109 41.5578 39.3049 41.5192C39.4989 41.4806 39.7 41.5004 39.8827 41.5761C40.0654 41.6518 40.2216 41.78 40.3315 41.9444C40.4414 42.1089 40.5 42.3022 40.5 42.5C40.5 42.7652 40.3946 43.0196 40.2071 43.2071C40.0196 43.3946 39.7652 43.5 39.5 43.5ZM41 33.09C40.9791 33.2044 40.919 33.3078 40.83 33.3827C40.741 33.4575 40.6288 33.499 40.5125 33.5H26.07L24.7975 26.5H42.2025L41 33.09Z" fill="white" fill-opacity="0.2"/>
</g>
<defs>
<filter id="filter0_b_2016_460" x="-14.5" y="-15" width="95" height="96" filterUnits="userSpaceOnUse" color-interpolation-filters="sRGB">
<feFlood flood-opacity="0" result="BackgroundImageFix"/>
<feGaussianBlur in="BackgroundImageFix" stdDeviation="7.5"/>
<feComposite in2="SourceAlpha" operator="in" result="effect1_backgroundBlur_2016_460"/>
<feBlend mode="normal" in="SourceGraphic" in2="effect1_backgroundBlur_2016_460" result="shape"/>
</filter>
<linearGradient id="paint0_linear_2016_460" x1="33" y1="0" x2="33" y2="66" gradientUnits="userSpaceOnUse">
<stop stop-color="#26383E"/>
<stop offset="1" stop-color="#1C2624"/>
</linearGradient>
</defs>
</svg>
