<svg width="66" height="66" viewBox="0 0 66 66" fill="none" xmlns="http://www.w3.org/2000/svg">
<g filter="url(#filter0_b_2016_462)">
<rect x="0.5" width="65" height="66" rx="32.5" fill="url(#paint0_linear_2016_462)"/>
<rect x="1" y="0.5" width="64" height="65" rx="32" stroke="#EBEBEB" stroke-opacity="0.16"/>
<path d="M46.5 29C46.5009 28.8606 46.4824 28.7218 46.445 28.5875L44.65 22.3137C44.4996 21.7927 44.1845 21.3345 43.7518 21.0075C43.3192 20.6805 42.7923 20.5025 42.25 20.5H23.75C23.2077 20.5025 22.6808 20.6805 22.2482 21.0075C21.8155 21.3345 21.5004 21.7927 21.35 22.3137L19.5575 28.5875C19.5192 28.7217 19.4999 28.8605 19.5 29V31C19.4999 31.8105 19.6791 32.611 20.0249 33.3441C20.3707 34.0772 20.8744 34.7246 21.5 35.24V43C21.5 43.663 21.7634 44.2989 22.2322 44.7678C22.7011 45.2366 23.337 45.5 24 45.5H42C42.663 45.5 43.2989 45.2366 43.7678 44.7678C44.2366 44.2989 44.5 43.663 44.5 43V35.24C45.1256 34.7246 45.6293 34.0772 45.9751 33.3441C46.3209 32.611 46.5001 31.8105 46.5 31V29ZM43.5 31C43.5 31.663 43.2366 32.2989 42.7678 32.7678C42.2989 33.2366 41.663 33.5 41 33.5C40.337 33.5 39.7011 33.2366 39.2322 32.7678C38.7634 32.2989 38.5 31.663 38.5 31V30.5H43.5V31ZM22.5 31V30.5H27.5V31C27.5 31.663 27.2366 32.2989 26.7678 32.7678C26.2989 33.2366 25.663 33.5 25 33.5C24.337 33.5 23.7011 33.2366 23.2322 32.7678C22.7634 32.2989 22.5 31.663 22.5 31ZM30.5 30.5H35.5V31C35.5 31.663 35.2366 32.2989 34.7678 32.7678C34.2989 33.2366 33.663 33.5 33 33.5C32.337 33.5 31.7011 33.2366 31.2322 32.7678C30.7634 32.2989 30.5 31.663 30.5 31V30.5ZM24.1313 23.5H41.875L43.0175 27.5H22.9888L24.1313 23.5ZM41.5 42.5H24.5V36.4762C24.665 36.4913 24.8313 36.5 25 36.5C25.7497 36.5002 26.4914 36.3467 27.1794 36.049C27.8674 35.7512 28.4871 35.3155 29 34.7687C29.5131 35.3153 30.1327 35.7509 30.8207 36.0487C31.5086 36.3465 32.2503 36.5001 33 36.5001C33.7497 36.5001 34.4914 36.3465 35.1793 36.0487C35.8673 35.7509 36.4869 35.3153 37 34.7687C37.5129 35.3155 38.1326 35.7512 38.8206 36.049C39.5086 36.3467 40.2503 36.5002 41 36.5C41.1688 36.5 41.335 36.4913 41.5 36.4762V42.5Z" fill="white" fill-opacity="0.2"/>
</g>
<defs>
<filter id="filter0_b_2016_462" x="-14.5" y="-15" width="95" height="96" filterUnits="userSpaceOnUse" color-interpolation-filters="sRGB">
<feFlood flood-opacity="0" result="BackgroundImageFix"/>
<feGaussianBlur in="BackgroundImageFix" stdDeviation="7.5"/>
<feComposite in2="SourceAlpha" operator="in" result="effect1_backgroundBlur_2016_462"/>
<feBlend mode="normal" in="SourceGraphic" in2="effect1_backgroundBlur_2016_462" result="shape"/>
</filter>
<linearGradient id="paint0_linear_2016_462" x1="33" y1="0" x2="33" y2="66" gradientUnits="userSpaceOnUse">
<stop stop-color="#26383E"/>
<stop offset="1" stop-color="#1C2624"/>
</linearGradient>
</defs>
</svg>
