<svg width="68" height="71" viewBox="0 0 68 71" fill="none" xmlns="http://www.w3.org/2000/svg">
<path d="M58.7631 29.5495V24.7226C58.7631 8.53402 50.5504 0.321289 34.3618 0.321289C18.1733 0.321289 9.96054 8.53402 9.96054 24.7226V29.5495C3.11989 31.3954 0.810059 36.3211 0.810059 46.5376V52.7761C0.810059 66.5167 4.99539 70.7119 18.7458 70.7119H49.9186C63.6591 70.7119 67.8543 66.5265 67.8543 52.7761V46.5376C67.8543 36.3507 65.5445 31.425 58.773 29.5495H58.7631ZM47.3719 28.6118H21.3616V24.7226C21.3616 15.9077 23.3062 11.7224 34.3618 11.7224C45.4174 11.7224 47.362 15.9077 47.362 24.7226V28.6118H47.3719Z" fill="url(#paint0_linear_2016_479)"/>
<path d="M43.8923 40.7793H24.7723C24.3497 40.7793 23.9444 40.9472 23.6456 41.246C23.3468 41.5448 23.179 41.95 23.179 42.3726V55.1193C23.179 55.5419 23.3468 55.9471 23.6456 56.2459C23.9444 56.5447 24.3497 56.7126 24.7723 56.7126H43.8923C44.3148 56.7126 44.7201 56.5447 45.0189 56.2459C45.3177 55.9471 45.4856 55.5419 45.4856 55.1193V42.3726C45.4856 41.95 45.3177 41.5448 45.0189 41.246C44.7201 40.9472 44.3148 40.7793 43.8923 40.7793ZM35.1289 53.5259H33.5356C33.3243 53.5259 33.1217 53.442 32.9723 53.2926C32.8229 53.1432 32.7389 52.9406 32.7389 52.7293C32.7389 52.518 32.8229 52.3154 32.9723 52.1659C33.1217 52.0165 33.3243 51.9326 33.5356 51.9326H35.1289C35.3402 51.9326 35.5429 52.0165 35.6923 52.1659C35.8417 52.3154 35.9256 52.518 35.9256 52.7293C35.9256 52.9406 35.8417 53.1432 35.6923 53.2926C35.5429 53.442 35.3402 53.5259 35.1289 53.5259ZM41.5023 53.5259H38.3156C38.1043 53.5259 37.9017 53.442 37.7523 53.2926C37.6029 53.1432 37.5189 52.9406 37.5189 52.7293C37.5189 52.518 37.6029 52.3154 37.7523 52.1659C37.9017 52.0165 38.1043 51.9326 38.3156 51.9326H41.5023C41.7135 51.9326 41.9162 52.0165 42.0656 52.1659C42.215 52.3154 42.2989 52.518 42.2989 52.7293C42.2989 52.9406 42.215 53.1432 42.0656 53.2926C41.9162 53.442 41.7135 53.5259 41.5023 53.5259ZM24.7723 44.7626V42.3726H43.8923V44.7626H24.7723Z" fill="white"/>
<defs>
<linearGradient id="paint0_linear_2016_479" x1="34.3322" y1="0.321289" x2="34.3322" y2="78.2425" gradientUnits="userSpaceOnUse">
<stop stop-color="#FF4027"/>
<stop offset="1" stop-color="#FF3F14" stop-opacity="0.25"/>
</linearGradient>
</defs>
</svg>
