<svg width="141" height="34" viewBox="0 0 141 34" fill="none" xmlns="http://www.w3.org/2000/svg">
<g clip-path="url(#clip0_2016_336)">
<path d="M17.5 18.2196C16.0425 18.2196 14.6476 17.6166 13.6774 16.5654L3.88297 5.94794C3.12634 5.1276 3.20061 3.87018 4.05008 3.13948L6.17143 1.31499C7.0209 0.584296 8.32296 0.656021 9.07959 1.47637L17.4954 10.6011L25.9158 1.47413C26.6724 0.653779 27.9745 0.579813 28.824 1.31275L30.9453 3.13724C31.7948 3.86793 31.8714 5.12535 31.1124 5.9457L21.318 16.5632C20.3478 17.6144 18.9553 18.2173 17.4954 18.2173L17.5 18.2196Z" fill="#FF4027"/>
<path d="M33.8349 10.5366C33.6052 9.96053 32.8369 9.83053 32.4122 10.2923C32.4075 10.2967 32.4052 10.3012 32.4006 10.3035L28.7033 14.3133C28.8658 15.0507 28.9493 15.8173 28.9493 16.6018C28.9493 22.9494 23.379 28.0665 16.7109 27.6317C10.7832 27.2461 6.10649 22.4428 6.05311 16.7049C6.04614 15.8868 6.1297 15.0866 6.30145 14.3178L2.59953 10.3057C2.59953 10.3057 2.59256 10.299 2.59024 10.2945C2.16551 9.83277 1.39727 9.96277 1.1675 10.5388C0.350522 12.574 -0.0649294 14.7975 0.00934118 17.1218C0.285535 25.9484 7.66385 33.1432 16.8038 33.4884C26.77 33.865 35.0024 26.1456 35.0024 16.6018C35.0024 14.4657 34.5892 12.4193 33.8373 10.5366H33.8349Z" fill="white"/>
</g>
<path d="M133.199 18.375L138.001 13.3369H140.74L135.863 18.3643L140.912 25.0029H138.227L134.198 19.7822L133.188 20.7705V25.0029H130.857V8.80371H133.188V18.375H133.199Z" fill="white"/>
<path d="M117.857 25.0029V13.3369H120.08V15.3027H120.123C120.832 13.9277 122.111 13.208 123.915 13.208C126.494 13.208 128.073 14.8408 128.073 17.5264V25.0029H125.742V17.9668C125.742 16.1943 124.818 15.2061 123.11 15.2061C121.348 15.2061 120.188 16.4307 120.188 18.2676V25.0029H117.857Z" fill="white"/>
<path d="M112.687 25.0029V13.3369H115.018V25.0029H112.687ZM113.858 11.6719C113.106 11.6719 112.494 11.0703 112.494 10.3291C112.494 9.56641 113.106 8.98633 113.858 8.98633C114.61 8.98633 115.223 9.56641 115.223 10.3291C115.223 11.0703 114.61 11.6719 113.858 11.6719Z" fill="white"/>
<path d="M110.418 22.9189V25.0029H100.793V9.50195H103.199V22.9189H110.418Z" fill="white"/>
<path d="M86.1707 25.0029V8.72852H89.8982V15.292H89.9734C90.6072 13.6914 92.0037 12.8428 93.8298 12.8428C96.4939 12.8428 98.1052 14.5293 98.1052 17.3545V25.0029H94.2917V18.1709C94.2917 16.7959 93.4968 15.9473 92.1863 15.9473C90.8865 15.9473 89.9734 16.9033 89.9734 18.2676V25.0029H86.1707Z" fill="white"/>
<path d="M73.4171 16.667C73.4171 14.293 75.4689 12.7891 78.7238 12.7891C81.9464 12.7891 83.9767 14.3252 83.9982 16.7744H80.5177C80.4855 15.915 79.7765 15.3672 78.6808 15.3672C77.714 15.3672 77.0802 15.7861 77.0802 16.4199C77.0802 16.9033 77.5314 17.2363 78.4552 17.4297L80.9259 17.9453C83.3107 18.4502 84.3204 19.417 84.3204 21.2217C84.3204 23.6816 82.0861 25.2607 78.7667 25.2607C75.3292 25.2607 73.299 23.6816 73.1378 21.2539H76.8331C76.9513 22.1562 77.6925 22.6826 78.8419 22.6826C79.9054 22.6826 80.5499 22.2959 80.5499 21.6514C80.5499 21.1572 80.1847 20.8779 79.2286 20.6738L76.9835 20.2012C74.6525 19.707 73.4171 18.4824 73.4171 16.667Z" fill="white"/>
<path d="M65.3795 22.5215C66.6041 22.5215 67.6461 21.791 67.6461 20.6953V19.8682L65.444 20.0186C64.359 20.0938 63.7682 20.5557 63.7682 21.2861C63.7682 22.0488 64.402 22.5215 65.3795 22.5215ZM64.0367 25.1641C61.7916 25.1641 59.9977 23.6924 59.9977 21.5439C59.9977 19.3096 61.7164 18.0742 64.8424 17.8809L67.6461 17.709V17.0215C67.6461 16.0439 66.9479 15.5176 65.8737 15.5176C64.8424 15.5176 64.1442 16.0654 64.0367 16.8066H60.61C60.7067 14.3896 62.8229 12.7891 66.0563 12.7891C69.2467 12.7891 71.3629 14.4111 71.3629 16.8174V25.0029H67.6676V23.2842H67.5924C66.9479 24.4873 65.4869 25.1641 64.0367 25.1641Z" fill="white"/>
<path d="M51.5303 25.2715C46.8896 25.2715 44 22.3174 44 17.2471C44 12.1875 46.9111 9.2334 51.5303 9.2334C55.4512 9.2334 58.4268 11.7578 58.5449 15.4209H54.7529C54.5596 13.5947 53.2598 12.3916 51.5303 12.3916C49.3818 12.3916 48.0176 14.2285 48.0176 17.2363C48.0176 20.2764 49.3711 22.1133 51.541 22.1133C53.2705 22.1133 54.5273 20.9746 54.7744 19.1592H58.5664C58.3838 22.8438 55.5264 25.2715 51.5303 25.2715Z" fill="white"/>
<defs>
<clipPath id="clip0_2016_336">
<rect width="35" height="33" fill="white" transform="translate(0 0.5)"/>
</clipPath>
</defs>
</svg>
