<?xml version="1.0" encoding="utf-8"?><svg xmlns="http://www.w3.org/2000/svg" xmlns:xlink="http://www.w3.org/1999/xlink"><symbol viewBox="0 0 17 12" id="arrow" xmlns="http://www.w3.org/2000/svg"><path fill-rule="evenodd" clip-rule="evenodd" d="M14.7491 6.0025L10.2793 1.53008L11.3403 0.469727L16.8704 6.00311L11.34 11.5304L10.2796 10.4694L14.7491 6.0025Z"/><path fill-rule="evenodd" clip-rule="evenodd" d="M0 5.25H15V6.75H0V5.25Z"/></symbol><symbol viewBox="0 0 14 13" id="check" xmlns="http://www.w3.org/2000/svg"><path fill-rule="evenodd" clip-rule="evenodd" d="M6.0107 8.71875L11.5141 1.84313L13.0756 3.09293L6.09371 11.8156L1.32333 6.46996L2.81555 5.13831L6.0107 8.71875Z"/></symbol><symbol viewBox="0 0 22 22" id="error" xmlns="http://www.w3.org/2000/svg"><path d="M10.4844 11.6875V6.875C10.4844 6.73825 10.5387 6.6071 10.6354 6.5104C10.7321 6.4137 10.8633 6.35938 11 6.35938C11.1368 6.35938 11.2679 6.4137 11.3646 6.5104C11.4613 6.6071 11.5156 6.73825 11.5156 6.875V11.6875C11.5156 11.8243 11.4613 11.9554 11.3646 12.0521C11.2679 12.1488 11.1368 12.2031 11 12.2031C10.8633 12.2031 10.7321 12.1488 10.6354 12.0521C10.5387 11.9554 10.4844 11.8243 10.4844 11.6875ZM19.7656 7.86758V14.1324C19.766 14.2905 19.7351 14.4471 19.6746 14.5931C19.6141 14.7391 19.5253 14.8717 19.4133 14.9832L14.9832 19.4133C14.8717 19.5253 14.7391 19.6141 14.5931 19.6746C14.4471 19.7351 14.2905 19.766 14.1324 19.7656H7.86758C7.70953 19.766 7.55296 19.7351 7.40693 19.6746C7.2609 19.6141 7.1283 19.5253 7.0168 19.4133L2.58672 14.9832C2.4747 14.8717 2.38588 14.7391 2.32541 14.5931C2.26493 14.4471 2.23399 14.2905 2.23438 14.1324V7.86758C2.23399 7.70953 2.26493 7.55296 2.32541 7.40693C2.38588 7.2609 2.4747 7.1283 2.58672 7.0168L7.0168 2.58672C7.1283 2.4747 7.2609 2.38588 7.40693 2.32541C7.55296 2.26493 7.70953 2.23399 7.86758 2.23438H14.1324C14.2905 2.23399 14.4471 2.26493 14.5931 2.32541C14.7391 2.38588 14.8717 2.4747 14.9832 2.58672L19.4133 7.0168C19.5253 7.1283 19.6141 7.2609 19.6746 7.40693C19.7351 7.55296 19.766 7.70953 19.7656 7.86758ZM18.7344 7.86758C18.7344 7.8449 18.7299 7.82244 18.7212 7.8015C18.7125 7.78055 18.6998 7.76154 18.6837 7.74555L14.2545 3.31633C14.2385 3.30025 14.2195 3.28749 14.1985 3.27878C14.1776 3.27008 14.1551 3.26561 14.1324 3.26563H7.86758C7.82207 3.26582 7.77849 3.28405 7.74641 3.31633L3.31547 7.74555C3.29954 7.76161 3.28694 7.78066 3.27839 7.8016C3.26983 7.82254 3.2655 7.84496 3.26563 7.86758V14.1324C3.26561 14.1551 3.27008 14.1776 3.27878 14.1985C3.28749 14.2195 3.30025 14.2385 3.31633 14.2545L7.74555 18.6837C7.76154 18.6998 7.78055 18.7125 7.8015 18.7212C7.82244 18.7299 7.8449 18.7344 7.86758 18.7344H14.1324C14.1779 18.7342 14.2215 18.716 14.2536 18.6837L18.6845 14.2545C18.7005 14.2384 18.7131 14.2194 18.7216 14.1984C18.7302 14.1775 18.7345 14.155 18.7344 14.1324V7.86758ZM11 13.9219C10.83 13.9219 10.6639 13.9723 10.5226 14.0667C10.3812 14.1611 10.2711 14.2954 10.206 14.4524C10.141 14.6094 10.124 14.7822 10.1571 14.9489C10.1903 15.1156 10.2721 15.2687 10.3923 15.3889C10.5125 15.5091 10.6656 15.591 10.8323 15.6241C10.9991 15.6573 11.1718 15.6403 11.3289 15.5752C11.4859 15.5102 11.6201 15.4 11.7145 15.2587C11.809 15.1174 11.8594 14.9512 11.8594 14.7813C11.8594 14.5533 11.7688 14.3347 11.6077 14.1736C11.4465 14.0124 11.2279 13.9219 11 13.9219Z"/></symbol></svg>